<svg width="167" height="52" viewBox="0 0 167 52" fill="none" xmlns="http://www.w3.org/2000/svg">
<path d="M14.0817 51.5C11.3937 51.5 8.99371 50.9 6.88171 49.7C4.76971 48.5 3.11371 46.796 1.91371 44.588C0.713709 42.38 0.113709 39.74 0.113709 36.668V15.356H7.52971V36.164C7.52971 39.236 8.29771 41.516 9.83371 43.004C11.3697 44.444 13.5057 45.164 16.2417 45.164C19.2657 45.164 21.6897 44.156 23.5137 42.14C25.3857 40.076 26.3217 37.124 26.3217 33.284V15.356H33.7377V50.852H26.4657V45.524H25.3137C24.6417 46.964 23.4417 48.332 21.7137 49.628C19.9857 50.876 17.4417 51.5 14.0817 51.5ZM44.7003 50.852V0.451986H52.1163V20.396H53.2683C53.7483 19.484 54.4203 18.596 55.2843 17.732C56.1963 16.868 57.3723 16.172 58.8123 15.644C60.3003 15.068 62.1723 14.78 64.4283 14.78C67.1163 14.78 69.4923 15.38 71.5563 16.58C73.6683 17.78 75.3243 19.484 76.5243 21.692C77.7243 23.852 78.3243 26.468 78.3243 29.54V50.852H70.9083V30.116C70.9083 27.044 70.1403 24.788 68.6043 23.348C67.0683 21.86 64.9563 21.116 62.2683 21.116C59.1963 21.116 56.7243 22.124 54.8523 24.14C53.0283 26.156 52.1163 29.084 52.1163 32.924V50.852H44.7003ZM105.629 51.86C102.077 51.86 98.9091 51.14 96.1251 49.7C93.3891 48.212 91.2291 46.1 89.6451 43.364C88.0611 40.628 87.2691 37.388 87.2691 33.644V32.564C87.2691 28.82 88.0611 25.604 89.6451 22.916C91.2291 20.18 93.3891 18.068 96.1251 16.58C98.9091 15.092 102.077 14.348 105.629 14.348C109.181 14.348 112.349 15.092 115.133 16.58C117.917 18.068 120.101 20.18 121.685 22.916C123.269 25.604 124.061 28.82 124.061 32.564V33.644C124.061 37.388 123.269 40.628 121.685 43.364C120.101 46.1 117.917 48.212 115.133 49.7C112.349 51.14 109.181 51.86 105.629 51.86ZM105.629 45.236C108.893 45.236 111.533 44.204 113.549 42.14C115.613 40.028 116.645 37.124 116.645 33.428V32.78C116.645 29.084 115.637 26.204 113.621 24.14C111.605 22.028 108.941 20.972 105.629 20.972C102.413 20.972 99.7731 22.028 97.7091 24.14C95.6931 26.204 94.6851 29.084 94.6851 32.78V33.428C94.6851 37.124 95.6931 40.028 97.7091 42.14C99.7731 44.204 102.413 45.236 105.629 45.236ZM133.294 50.852V0.451986H140.71V20.396H141.862C142.342 19.484 143.014 18.596 143.878 17.732C144.79 16.868 145.966 16.172 147.406 15.644C148.894 15.068 150.766 14.78 153.022 14.78C155.71 14.78 158.086 15.38 160.15 16.58C162.262 17.78 163.918 19.484 165.118 21.692C166.318 23.852 166.918 26.468 166.918 29.54V50.852H159.502V30.116C159.502 27.044 158.734 24.788 157.198 23.348C155.662 21.86 153.55 21.116 150.862 21.116C147.79 21.116 145.318 22.124 143.446 24.14C141.622 26.156 140.71 29.084 140.71 32.924V50.852H133.294Z" fill="black"/>
</svg>
